<?xml version="1.0" standalone="no"?>
<!DOCTYPE svg PUBLIC "-//W3C//DTD SVG 20010904//EN"
 "http://www.w3.org/TR/2001/REC-SVG-20010904/DTD/svg10.dtd">
<svg version="1.0" xmlns="http://www.w3.org/2000/svg"
 width="1024.000000pt" height="1024.000000pt" viewBox="0 0 1024.000000 1024.000000"
 preserveAspectRatio="xMidYMid meet">
<metadata>
Created by potrace 1.14, written by Peter Selinger 2001-2017
</metadata>
<g transform="translate(0.000000,1024.000000) scale(0.100000,-0.100000)"
fill="#000000" stroke="none">
<path d="M4905 10234 c-33 -2 -121 -9 -195 -14 -1463 -114 -2816 -865 -3697
-2050 -464 -624 -782 -1351 -922 -2105 -63 -339 -84 -581 -84 -945 0 -580 79
-1078 258 -1615 508 -1527 1713 -2732 3240 -3240 532 -177 1038 -258 1610
-259 280 0 461 11 700 45 1478 205 2786 1036 3597 2284 415 639 687 1378 782
2125 55 428 55 892 0 1320 -144 1135 -684 2209 -1511 3010 -857 831 -1942
1324 -3143 1430 -125 11 -538 20 -635 14z m725 -298 c1144 -128 2162 -623
2960 -1442 761 -780 1222 -1763 1347 -2874 25 -219 25 -781 0 -1000 -66 -586
-210 -1092 -457 -1605 -673 -1399 -2002 -2403 -3531 -2665 -317 -54 -450 -64
-829 -64 -370 0 -508 10 -805 60 -2029 340 -3629 1940 -3969 3969 -50 297 -60
435 -60 805 0 370 10 508 60 805 259 1546 1267 2885 2682 3562 560 268 1112
412 1787 467 120 9 677 -3 815 -18z"/>
<path d="M7019 9222 c-447 -351 -916 -784 -1244 -1147 -223 -247 -524 -623
-652 -816 -25 -38 -50 -69 -55 -69 -19 0 -115 54 -157 88 -117 95 -199 211
-253 357 -47 129 -145 350 -219 495 -283 558 -600 917 -914 1036 -38 13 -111
31 -164 39 -153 23 -154 23 -75 -37 274 -206 595 -708 823 -1284 184 -467 291
-859 431 -1572 7 -40 4 -54 -37 -145 -243 -548 -391 -1094 -455 -1682 -20
-184 -17 -717 5 -875 18 -131 76 -390 87 -390 4 0 12 48 19 108 35 306 147
696 345 1194 173 436 247 583 374 735 117 140 226 153 363 43 63 -51 262 -256
368 -380 209 -244 330 -333 522 -386 92 -26 268 -23 374 5 317 84 700 407 985
831 l60 89 -30 21 c-17 12 -34 20 -39 18 -4 -2 -42 -44 -84 -94 -161 -192
-346 -323 -522 -369 -74 -19 -191 -19 -270 0 -303 71 -621 410 -877 933 -97
199 -106 241 -90 436 45 536 338 1189 887 1981 191 274 481 648 652 839 l44
49 -27 29 c-15 15 -30 28 -33 27 -3 0 -67 -49 -142 -107z m-266 -384 c-633
-815 -1047 -1596 -1169 -2201 -22 -111 -27 -160 -28 -312 -1 -179 -1 -181 29
-250 210 -493 533 -909 822 -1054 220 -112 434 -113 657 -5 l51 25 -91 -88
c-157 -152 -323 -259 -489 -315 -115 -40 -273 -50 -375 -24 -166 41 -285 128
-468 341 -130 152 -355 380 -426 432 -144 106 -288 93 -416 -37 -116 -118
-199 -258 -320 -540 -147 -343 -292 -746 -363 -1009 l-34 -124 -6 49 c-24 197
-16 577 19 864 184 1518 1069 2991 2564 4269 90 78 166 141 167 141 1 0 -54
-73 -124 -162z"/>
<path d="M4912 8364 c-99 -49 -197 -195 -238 -354 -26 -97 -23 -248 5 -329 96
-277 359 -367 549 -187 140 132 178 358 98 587 -84 242 -258 361 -414 283z"/>
<path d="M1834 4402 c-41 -26 -90 -87 -111 -139 -12 -28 -24 -43 -36 -43 -32
0 -75 -29 -98 -66 -22 -37 -23 -39 -11 -178 15 -176 29 -230 98 -381 l56 -119
-7 -86 c-15 -187 -12 -241 16 -300 32 -68 92 -141 165 -201 38 -32 70 -71 101
-125 67 -119 148 -227 252 -336 219 -231 457 -379 788 -492 270 -91 456 -194
602 -331 176 -166 264 -345 280 -570 l6 -90 33 -3 32 -3 0 64 c0 236 -118 486
-313 663 -71 64 -213 162 -299 205 -32 16 -58 31 -58 33 0 2 19 0 43 -5 23 -4
84 -11 135 -15 l92 -7 0 31 c0 37 10 33 -175 56 -71 9 -152 21 -180 28 l-50
11 40 19 c32 14 34 17 12 13 -18 -4 -26 -2 -23 4 4 6 4 22 0 36 -5 19 -13 25
-34 25 -16 0 -30 5 -32 10 -4 12 -94 -16 -104 -32 -4 -6 2 -8 15 -3 20 6 21 5
10 -13 -12 -19 -15 -19 -52 -6 -65 23 -144 73 -205 128 -31 29 -84 67 -117 85
-107 60 -421 312 -443 356 -37 78 -217 280 -284 321 -51 31 -148 125 -148 144
0 4 19 10 43 14 58 9 107 26 107 36 0 5 -6 7 -14 4 -8 -3 -15 4 -18 20 -4 17
-1 23 9 19 7 -3 13 0 13 7 0 8 -9 10 -27 5 -38 -9 -41 -14 -20 -29 9 -7 17
-17 17 -22 0 -4 -5 -3 -12 4 -9 9 -14 7 -24 -6 -12 -15 -15 -15 -24 -2 -6 10
-10 11 -10 3 0 -7 -4 -13 -10 -13 -19 0 -10 29 12 36 19 6 19 7 5 16 -11 5
-24 5 -37 -2 -16 -8 -18 -15 -10 -35 7 -19 6 -25 -5 -25 -27 0 -36 69 -20 154
24 123 19 375 -10 502 -4 18 1 23 31 28 19 4 42 10 50 13 11 4 14 -6 14 -48 0
-30 7 -85 16 -124 8 -38 21 -104 28 -145 20 -108 50 -180 118 -281 71 -107
185 -223 322 -329 171 -132 316 -293 395 -440 39 -73 44 -78 123 -122 142 -79
292 -134 414 -153 42 -6 42 -6 46 28 4 35 4 35 -44 41 -79 11 -222 62 -336
121 -104 53 -108 56 -141 117 -80 147 -249 338 -396 449 -102 76 -225 187
-254 227 l-19 27 45 -4 c49 -3 133 16 133 31 0 5 -9 6 -20 3 -15 -5 -20 -2
-20 12 0 14 -2 15 -9 4 -6 -9 -11 -10 -15 -2 -9 14 -46 15 -46 1 0 -5 7 -7 15
-4 10 4 15 0 15 -10 0 -13 -6 -15 -27 -10 -36 9 -46 25 -27 45 15 17 19 39 7
39 -17 -1 -57 -29 -43 -30 10 0 15 -10 15 -30 0 -25 -4 -30 -20 -28 -44 6
-140 177 -156 280 -6 35 -17 88 -25 118 -18 74 -34 224 -34 338 0 89 2 97 36
160 45 82 57 92 109 92 100 0 190 -59 242 -157 39 -74 53 -141 46 -224 -8 -91
12 -190 54 -279 28 -59 54 -93 122 -160 47 -47 113 -101 147 -120 l61 -35 -1
-50 c0 -59 30 -118 91 -177 32 -31 69 -48 224 -102 103 -36 283 -104 400 -152
118 -47 237 -93 264 -101 96 -29 244 -114 314 -181 60 -58 67 -62 88 -51 33
18 29 31 -26 88 -65 66 -181 141 -277 178 -44 17 -182 72 -309 122 -126 50
-279 108 -340 130 -90 33 -103 40 -74 40 25 1 43 9 62 29 27 28 77 131 77 158
0 9 -29 29 -75 49 -101 46 -114 49 -181 35 -71 -15 -104 -45 -104 -96 0 -42
28 -73 125 -137 33 -22 51 -37 40 -33 -11 4 -44 15 -74 24 -41 13 -64 29 -101
69 -62 67 -71 105 -36 138 68 63 195 67 376 12 213 -64 578 -132 950 -177 180
-21 391 -110 518 -218 116 -98 351 -503 426 -733 76 -232 90 -467 40 -653 -40
-147 -133 -305 -238 -404 -55 -52 -56 -53 -40 -77 9 -14 20 -25 24 -25 17 0
104 87 159 161 62 81 119 190 142 267 7 23 15 42 18 42 3 0 17 -30 29 -67 30
-86 89 -189 160 -276 47 -59 120 -127 135 -127 2 0 12 11 21 25 17 26 17 26
-33 71 -72 65 -138 156 -186 259 -62 130 -76 196 -82 370 -6 171 11 277 71
452 90 265 314 637 444 737 168 129 314 176 684 221 244 29 594 100 794 161
125 38 184 42 265 18 111 -32 123 -85 39 -177 -38 -42 -60 -57 -107 -71 -32
-10 -65 -21 -73 -24 -8 -2 12 13 45 35 100 66 125 95 125 141 0 34 -5 44 -30
62 -16 12 -56 26 -88 32 -55 10 -60 9 -146 -27 -48 -21 -90 -43 -92 -50 -8
-20 34 -118 67 -157 25 -31 37 -38 67 -39 31 0 19 -7 -73 -40 -60 -22 -213
-80 -340 -130 -126 -50 -264 -105 -305 -121 -41 -16 -107 -50 -147 -74 -73
-45 -183 -146 -183 -168 0 -7 11 -19 25 -26 24 -13 27 -12 56 23 59 71 208
163 335 206 32 11 154 58 269 104 116 46 296 115 400 151 168 60 195 72 233
109 58 57 96 136 89 185 -6 37 -5 37 56 72 84 47 224 188 265 266 45 87 65
181 60 284 -6 100 8 166 47 239 51 94 142 151 240 151 52 0 64 -10 110 -94
l38 -70 -6 -160 c-4 -106 -13 -188 -26 -241 -11 -44 -22 -101 -25 -127 -12
-100 -115 -292 -159 -296 -18 -1 -22 4 -22 28 0 20 4 29 13 25 6 -2 12 0 12 6
0 8 -40 29 -56 29 -9 0 -3 -24 10 -39 19 -21 9 -36 -27 -45 -22 -5 -28 -4 -24
6 2 7 10 12 16 11 6 -2 11 2 11 7 0 14 -37 12 -43 -2 -4 -10 -8 -9 -16 2 -9
13 -11 12 -11 -3 0 -14 -5 -17 -22 -12 -22 6 -22 5 -4 -9 22 -18 93 -30 135
-24 l30 4 -30 -38 c-42 -52 -137 -137 -245 -219 -149 -112 -300 -282 -388
-436 -41 -73 -41 -73 -147 -128 -113 -58 -253 -109 -331 -120 -47 -7 -48 -8
-48 -42 l0 -35 43 7 c128 20 274 74 416 153 75 42 86 52 111 102 75 146 247
342 405 459 232 173 387 375 429 562 38 162 48 219 53 292 4 58 9 77 19 73 7
-3 29 -8 48 -12 30 -5 35 -10 31 -28 -29 -127 -34 -379 -10 -502 16 -85 7
-154 -20 -154 -11 0 -12 6 -5 25 8 20 6 27 -11 36 -15 8 -24 8 -32 0 -7 -7 -5
-12 6 -17 9 -3 17 -12 17 -20 0 -17 -17 -18 -23 -1 -4 10 -6 10 -6 0 -1 -18
-21 -16 -21 2 0 18 -17 20 -23 3 -2 -7 -8 -10 -12 -5 -5 4 0 14 11 21 22 17
19 22 -19 31 -17 5 -27 3 -27 -4 0 -6 6 -8 14 -5 10 4 12 -2 9 -20 -3 -14 -13
-27 -22 -29 -19 -4 82 -37 116 -37 13 0 23 -4 23 -9 0 -19 -89 -107 -145 -143
-66 -43 -148 -130 -237 -253 -73 -101 -79 -107 -218 -224 -132 -111 -225 -179
-290 -211 -25 -13 -74 -50 -110 -82 -40 -37 -96 -75 -148 -100 -46 -22 -84
-39 -85 -37 -2 2 -9 13 -17 23 -14 18 -13 18 10 12 24 -7 24 -6 5 9 -26 21
-89 38 -93 25 -2 -6 -16 -10 -32 -10 -21 0 -29 -6 -34 -25 -4 -14 -4 -31 0
-37 4 -6 -1 -8 -15 -3 -33 10 -25 -3 12 -18 l32 -14 -55 -12 c-80 -16 -250
-41 -287 -41 -49 0 -63 -9 -63 -41 0 -28 2 -29 48 -28 26 0 86 6 135 13 48 7
87 11 87 9 0 -1 -26 -16 -58 -32 -87 -44 -228 -142 -304 -210 -90 -82 -171
-192 -223 -304 -53 -114 -74 -194 -82 -320 l-6 -98 34 3 34 3 6 91 c16 218
105 403 271 559 154 145 338 249 582 330 344 115 561 246 791 479 124 126 205
231 281 362 31 56 60 91 105 127 74 60 141 148 169 225 17 45 20 70 16 122 -3
36 -8 103 -12 150 l-6 86 56 119 c69 149 83 205 98 376 9 110 9 142 -2 168
-17 41 -65 81 -98 81 -23 0 -30 8 -46 47 -23 54 -76 118 -119 140 -70 36 -159
-4 -222 -100 -23 -35 -36 -46 -57 -46 -43 -1 -132 -39 -177 -74 -105 -83 -151
-196 -151 -371 0 -129 -16 -205 -61 -284 -42 -73 -132 -160 -224 -217 l-77
-48 -63 22 c-34 12 -96 25 -136 28 -64 5 -87 1 -169 -25 -121 -39 -322 -86
-521 -122 -144 -27 -234 -40 -479 -70 -267 -34 -523 -163 -646 -327 -167 -222
-313 -501 -378 -723 -13 -47 -27 -78 -29 -70 -3 8 -20 60 -37 115 -89 279
-332 684 -477 794 -140 107 -344 187 -533 211 -437 54 -787 122 -1014 197 -67
22 -90 25 -154 20 -41 -3 -103 -16 -137 -28 l-64 -22 -66 42 c-134 84 -219
176 -266 292 -19 45 -23 77 -26 194 -2 108 -8 154 -23 201 -26 76 -85 161
-138 198 -46 32 -132 66 -166 66 -17 0 -34 14 -59 49 -72 100 -163 136 -233
93z m145 -98 c45 -45 45 -46 26 -63 -11 -9 -30 -29 -43 -45 l-22 -29 0 39 c0
46 -31 118 -57 133 -15 9 -13 10 16 11 27 0 43 -9 80 -46z m6594 28 c-29 -22
-53 -81 -53 -129 l0 -37 -17 24 c-10 14 -29 35 -43 46 l-25 22 46 46 c37 37
53 46 80 46 l34 0 -22 -18z m-6687 -67 c17 -42 18 -75 2 -110 -10 -22 -17 -25
-61 -25 l-50 0 6 59 c6 70 29 111 64 111 18 0 28 -9 39 -35z m6775 -5 c11 -20
19 -55 19 -82 l0 -48 -49 0 c-46 0 -50 2 -60 31 -15 42 -14 63 4 105 12 30 19
35 41 32 19 -2 32 -14 45 -38z m-37 -170 l56 0 0 -84 c0 -62 -4 -89 -15 -100
-13 -13 -13 -16 1 -30 14 -15 13 -16 -15 -16 -17 0 -31 -5 -31 -11 0 -5 4 -8
9 -5 5 3 14 -1 21 -9 15 -18 -1 -21 -31 -5 -23 13 -26 40 -4 40 20 0 19 19 0
27 -21 8 -26 1 -27 -37 -1 -19 -4 -27 -8 -18 -4 7 -7 24 -5 38 1 20 8 26 33
28 18 2 32 8 32 14 0 6 -12 8 -30 5 -29 -6 -30 -6 -31 36 -1 23 -1 50 0 59 1
9 -7 36 -19 60 -11 24 -15 35 -7 26 11 -13 29 -18 71 -18z m-6939 -30 c8 -50
-2 -100 -21 -100 -10 0 -14 15 -14 59 0 96 22 121 35 41z m7125 -37 c0 -67
-13 -82 -31 -35 -10 25 -5 94 8 115 12 19 23 -20 23 -80z m-6912 55 c-7 -13
-12 -52 -13 -88 0 -64 0 -65 -27 -62 -14 1 -30 -3 -34 -9 -5 -8 4 -10 30 -7
34 4 36 2 36 -24 0 -15 -4 -28 -10 -28 -5 0 -9 3 -9 8 3 20 -2 32 -15 32 -24
0 -29 -20 -10 -36 18 -14 18 -14 0 -29 -24 -18 -39 -19 -33 -2 2 6 10 11 16
10 6 -2 11 2 11 8 0 7 -12 10 -30 7 -34 -5 -36 -3 -15 18 13 14 13 17 0 30
-11 11 -15 38 -15 99 l0 84 63 4 c34 2 63 4 65 5 1 1 -3 -8 -10 -20z m-186
-208 c3 -43 0 -50 -17 -53 -19 -4 -19 -5 2 -12 25 -8 28 -15 43 -105 15 -99
12 -101 -25 -22 -29 61 -65 191 -65 232 0 5 13 10 29 10 28 0 29 -2 33 -50z
m7098 41 c0 -44 -35 -170 -64 -231 l-36 -75 5 50 c9 85 26 145 40 145 8 0 17
5 21 12 5 8 2 9 -9 5 -15 -5 -17 1 -17 48 0 54 0 55 30 55 17 0 30 -4 30 -9z
m-6920 -65 c0 -3 -4 -8 -10 -11 -5 -3 -10 -1 -10 4 0 6 5 11 10 11 6 0 10 -2
10 -4z m1242 -673 c35 -14 67 -30 72 -34 23 -20 -48 -139 -82 -139 -23 0 -110
52 -149 89 -64 59 -40 89 89 110 4 1 35 -11 70 -26z m4361 0 c22 -11 28 -20
25 -41 -2 -20 -21 -39 -77 -79 -40 -29 -84 -53 -96 -53 -13 0 -34 13 -48 30
-27 32 -53 97 -43 108 4 3 35 18 69 33 67 29 115 30 170 2z m-4883 -923 c58
-38 121 -83 140 -101 l35 -31 -60 32 c-119 64 -236 150 -333 243 -102 97 -99
102 8 13 58 -48 152 -119 210 -156z m5485 164 c-118 -109 -285 -228 -395 -284
l-25 -13 24 27 c14 14 50 40 80 57 63 36 251 175 326 242 28 25 52 43 55 40 3
-3 -26 -34 -65 -69z m-4885 -348 c0 -14 -4 -28 -10 -31 -5 -3 -10 1 -10 9 0 9
-7 16 -16 16 -8 0 -13 -3 -11 -7 6 -9 -13 -27 -31 -31 -7 -1 -22 3 -33 9 -24
12 -12 33 19 35 55 3 63 5 57 14 -3 6 3 10 14 10 16 0 21 -6 21 -24z m4075 14
c-3 -6 6 -11 22 -12 42 -2 47 -3 62 -12 12 -8 11 -11 -4 -23 -11 -7 -25 -13
-33 -13 -17 0 -43 25 -35 34 4 3 -1 6 -10 6 -9 0 -17 -7 -17 -16 0 -8 -4 -12
-10 -9 -5 3 -10 17 -10 31 0 18 5 24 21 24 11 0 17 -4 14 -10z"/>
<path d="M2045 4121 c-65 -29 -105 -146 -73 -216 11 -25 13 -25 125 -25 l114
0 15 35 c19 45 18 71 -5 121 -29 64 -121 109 -176 85z m107 -62 c30 -22 51
-79 42 -116 -6 -22 -11 -23 -95 -23 -85 0 -89 1 -95 24 -9 37 14 103 43 126
31 24 60 21 105 -11z"/>
<path d="M8325 4116 c-80 -36 -119 -117 -94 -191 l14 -40 119 0 119 0 10 28
c5 16 6 53 2 84 -12 98 -93 155 -170 119z m79 -37 c25 -12 56 -72 56 -108 0
-47 -8 -51 -100 -51 -83 0 -88 1 -94 23 -9 37 12 94 42 115 47 33 62 36 96 21z"/>
<path d="M2267 3294 c7 -3 9 -12 6 -20 -3 -8 0 -14 6 -14 6 0 11 4 11 10 0 5
7 7 15 4 8 -4 15 -2 15 4 0 5 -7 13 -16 16 -18 7 -55 7 -37 0z"/>
<path d="M8153 3293 c-7 -2 -13 -9 -13 -15 0 -6 7 -8 15 -4 8 3 15 1 15 -5 0
-6 5 -7 10 -4 6 4 8 10 5 15 -3 4 1 11 7 13 7 3 4 5 -7 5 -11 0 -26 -2 -32 -5z"/>
<path d="M3596 3075 c-11 -8 -17 -17 -14 -21 7 -6 48 17 48 28 0 12 -13 9 -34
-7z"/>
<path d="M6830 3081 c0 -4 11 -13 25 -19 14 -6 25 -8 25 -3 0 4 -11 13 -25 19
-14 6 -25 8 -25 3z"/>
<path d="M3671 3031 c-10 -18 -15 -19 -31 -9 -15 10 -22 10 -32 0 -9 -9 -7
-12 10 -12 17 0 22 -6 22 -25 0 -38 15 -30 33 17 18 44 16 63 -2 29z"/>
<path d="M6770 3045 c0 -3 10 -25 22 -48 22 -41 23 -41 26 -14 2 20 9 27 25
27 17 0 18 3 9 12 -10 10 -17 10 -33 0 -18 -12 -21 -11 -26 7 -5 18 -23 30
-23 16z"/>
<path d="M3540 3000 c-21 -41 -19 -45 22 -41 12 2 15 -4 11 -19 -3 -11 0 -20
6 -20 6 0 11 5 11 12 0 6 3 8 7 5 9 -10 33 13 32 32 0 10 -2 11 -6 4 -6 -17
-18 -16 -38 3 -12 12 -13 19 -4 30 9 11 9 14 0 14 -7 0 -9 5 -6 10 3 6 2 10
-4 10 -6 0 -20 -18 -31 -40z"/>
<path d="M6885 3030 c3 -5 1 -10 -6 -10 -8 0 -9 -3 0 -13 6 -8 7 -17 3 -21
-10 -11 27 -36 44 -29 11 4 10 12 -6 44 -11 21 -25 39 -31 39 -6 0 -7 -4 -4
-10z"/>
<path d="M6830 2969 c0 -9 7 -22 15 -29 8 -7 15 -9 15 -4 0 5 4 2 10 -6 12
-20 23 -6 15 20 -5 14 -12 19 -23 15 -8 -3 -19 0 -24 7 -6 10 -8 9 -8 -3z"/>
<path d="M3620 2931 c0 -10 -41 -39 -61 -43 -7 -2 -16 8 -20 22 -7 24 -8 23
-6 -5 2 -27 6 -30 35 -31 25 -1 37 6 52 27 22 31 25 39 10 39 -5 0 -10 -4 -10
-9z"/>
<path d="M6837 2908 c15 -26 25 -32 53 -33 32 0 35 3 37 30 2 28 1 29 -6 5 -4
-14 -13 -24 -20 -22 -20 4 -61 33 -61 43 0 5 -5 9 -11 9 -6 0 -3 -14 8 -32z"/>
<path d="M3507 2924 c-4 -4 -7 -17 -7 -28 1 -19 1 -20 11 -3 11 19 8 43 -4 31z"/>
<path d="M6940 2918 c0 -7 5 -20 10 -28 8 -12 10 -11 10 7 0 12 -4 25 -10 28
-5 3 -10 0 -10 -7z"/>
<path d="M3544 2836 c-10 -8 -17 -17 -14 -19 3 -3 14 1 24 9 11 7 17 16 15 19
-3 3 -14 -2 -25 -9z"/>
<path d="M6890 2842 c0 -4 9 -13 20 -20 22 -13 27 -3 8 16 -14 14 -28 16 -28
4z"/>
<path d="M3095 2523 c-45 -9 -48 -13 -22 -33 27 -21 57 -27 57 -10 0 5 7 6 17
3 11 -4 14 -3 9 5 -4 7 -24 13 -44 13 -36 1 -36 1 -7 8 32 7 23 20 -10 14z"/>
<path d="M7330 2521 c0 -5 12 -12 28 -14 22 -3 20 -4 -10 -6 -20 0 -40 -6 -44
-13 -5 -8 -2 -9 9 -5 10 3 17 2 17 -3 0 -17 30 -11 57 10 27 21 25 22 -29 34
-16 4 -28 2 -28 -3z"/>
<path d="M3020 2475 c-7 -8 -10 -27 -7 -41 4 -24 3 -26 -26 -20 -24 5 -29 4
-20 -5 7 -7 25 -9 50 -4 33 6 36 8 20 20 -23 17 -22 31 5 49 17 12 18 16 6 16
-8 0 -21 -7 -28 -15z"/>
<path d="M7418 2474 c27 -18 28 -32 5 -49 -16 -12 -13 -14 20 -20 25 -5 43 -3
50 4 9 9 3 10 -22 5 -31 -6 -33 -6 -23 13 13 24 -9 63 -36 63 -13 0 -12 -3 6
-16z"/>
<path d="M3075 2450 c-3 -5 -3 -15 1 -21 3 -6 0 -16 -7 -21 -21 -15 66 0 104
17 31 15 31 15 5 11 -15 -1 -25 1 -22 5 3 5 1 9 -5 9 -5 0 -13 -4 -16 -10 -8
-14 -45 -13 -45 1 0 6 7 9 15 5 8 -3 15 -1 15 4 0 13 -37 13 -45 0z"/>
<path d="M7340 2451 c0 -6 7 -8 15 -5 8 4 15 1 15 -5 0 -14 -37 -15 -45 -1 -3
6 -11 10 -16 10 -6 0 -8 -4 -5 -9 3 -4 -7 -6 -22 -5 -26 4 -26 4 5 -11 35 -16
125 -32 106 -18 -6 4 -11 17 -10 28 1 14 -5 21 -20 23 -13 2 -23 -1 -23 -7z"/>
<path d="M3181 2116 c11 -9 69 -15 64 -6 -3 6 -20 10 -37 10 -17 0 -29 -2 -27
-4z"/>
<path d="M7215 2110 c-7 -11 9 -11 45 0 24 8 24 8 -7 9 -17 1 -35 -3 -38 -9z"/>
</g>
</svg>
